<?xml version="1.0" standalone="no"?>
<!DOCTYPE svg PUBLIC "-//W3C//DTD SVG 20010904//EN"
 "http://www.w3.org/TR/2001/REC-SVG-20010904/DTD/svg10.dtd">
<svg version="1.0" xmlns="http://www.w3.org/2000/svg"
 width="1232.000000pt" height="1280.000000pt" viewBox="0 0 1232.000000 1280.000000"
 preserveAspectRatio="xMidYMid meet">
<metadata>
Created by potrace 1.15, written by Peter Selinger 2001-2017
</metadata>
<g transform="translate(0.000000,1280.000000) scale(0.100000,-0.100000)"
fill="#000000" stroke="none">
<path d="M576 12765 c-152 -79 -320 -223 -412 -350 -53 -74 -111 -194 -136
-282 -20 -68 -23 -101 -22 -248 1 -343 89 -773 208 -1014 49 -100 24 -72 645
-730 267 -283 488 -524 489 -535 2 -12 21 -149 41 -305 l37 -284 -246 -311
-247 -311 78 -476 78 -476 216 -721 217 -721 -296 -405 c-163 -223 -299 -411
-302 -419 -2 -7 102 -418 232 -913 l237 -899 -7 -277 c-6 -260 -6 -277 11
-282 84 -26 529 -136 539 -134 7 2 103 77 214 167 l202 163 -69 72 c-37 39
-138 143 -224 231 l-155 160 -132 620 c-73 341 -132 626 -132 632 0 7 125 113
278 235 152 122 378 309 501 415 123 106 227 193 231 193 4 0 85 -201 180
-448 l173 -447 119 -192 120 -191 46 -6 c41 -5 560 -50 667 -58 l39 -3 182
220 c147 177 179 221 166 227 -10 4 -156 35 -326 68 -170 32 -310 61 -311 62
-1 2 -83 116 -182 255 l-180 251 -47 322 c-26 176 -46 329 -44 339 2 10 98 99
213 198 206 176 215 184 428 444 120 145 222 265 226 267 4 1 136 -154 293
-345 258 -314 325 -388 691 -763 l405 -415 719 -354 c395 -194 721 -356 725
-360 4 -3 -22 -134 -57 -291 l-64 -284 105 -240 104 -239 0 -631 -1 -631 -63
-270 -63 -270 94 -279 94 -280 -111 -392 -111 -392 24 -212 c14 -116 27 -213
29 -215 3 -4 399 17 774 40 l101 7 111 319 111 319 -191 317 -191 318 54 692
c30 381 56 693 59 693 3 0 48 -138 100 -306 52 -168 98 -310 102 -316 6 -10
455 2 639 18 l65 6 39 236 c21 131 38 241 39 246 0 5 -110 56 -245 113 l-247
105 -7 312 -7 311 198 382 199 382 470 492 c259 271 478 503 487 515 13 15 42
166 105 528 l87 507 56 30 c55 29 56 30 104 142 39 89 128 268 142 285 1 2
154 -92 340 -208 185 -117 349 -216 363 -220 14 -4 200 -44 412 -90 l385 -83
364 127 c200 70 365 128 366 129 1 1 -23 146 -55 322 l-57 320 -263 379 c-145
208 -265 386 -268 395 -2 9 46 121 106 249 l110 233 -73 295 -73 294 200 292
c110 161 210 309 223 328 l23 35 -38 228 c-21 125 -40 229 -42 232 -3 2 -215
26 -472 52 l-467 48 -116 -47 -117 -48 -472 0 -472 0 -208 -120 -208 -120
-352 -40 -353 -40 -189 -71 c-103 -39 -189 -72 -190 -73 -1 -1 9 -98 22 -216
13 -118 23 -215 22 -216 -70 -69 -397 -344 -410 -344 -10 0 -131 21 -269 46
l-251 46 -320 160 -320 160 -836 300 c-758 271 -905 328 -1574 605 l-737 305
-862 -56 c-848 -56 -862 -57 -887 -38 -15 10 -287 209 -606 442 -319 232 -588
430 -597 439 -18 16 -303 903 -296 921 2 4 70 71 152 149 l149 140 251 0 c138
1 393 4 566 7 l315 7 87 111 c48 61 87 115 88 121 1 5 -93 48 -209 96 l-210
86 -433 12 c-238 6 -489 14 -558 17 l-125 5 -69 -36z"/>
</g>
</svg>
