<svg xmlns="http://www.w3.org/2000/svg" width="369.47" height="299.964" viewBox="0 0 369.47 299.964">
    <g id="Layer_5" transform="translate(-199.33 -454.313)">
        <g id="XMLID_4_" transform="translate(199.33 569.243)">
            <path id="Path_7" data-name="Path 7" d="M199.33,915.638c4.078,15.09.693,23.263,11.079,34.614,9.711,10.614,41.733,11.581,28.2,29.37,5.98,28.444-5.649,45.018-18.127,59.792-.658,6.305,1.328,15.365-1.008,19.929-4.451,13.983,7.619,19.932,14.1,10.49.4-4.611-4.583-3.62-7.051-5.245-2.393-24.546,13.295-29.934,23.162-39.859,9.138-9.192,11.415-19.318,17.122-32.518,5.945,9.44,7.117,19.585,6.043,34.614,6.826,4.077,15.183,6.564,20.142,12.589,1.01-.006,1.2.848,2.013,1.049,5.821.818,8.807-1.32,12.086-3.149.5-5.068-3.607-5.333-8.058-5.245-27.055,4.019-8.622-43.583-19.134-58.739,18.37-4.986,30.57,5.1,49.347,3.146,5.342,12.269,7.96,27.375,8.058,45.1,6.636-.268,4.821,8.264,8.056,11.539,6.138-.848,11.42,1.542,13.091-5.245-19.01.568-14.263-29.193-13.091-46.153,10.941,3.372,12.739,26,26.185,19.93-7.567-11-14.533-22.626-26.185-29.37,8.8-12.867,5.948-37.859,15.107-50.349,9.632-1.507,9.071-13.63,14.1-19.932a22.383,22.383,0,0,0,1.008,14.688c-.333-6.642,4.165-8.247,4.028-14.688-4.673-9.467-15.051-12.994-29.205-12.586H348.38c-7.775.314-14.046,11.691-7.048,17.831-27.574,21.282-79.2,17.511-97.69,48.252C215.211,956.44,209.245,933.981,199.33,915.638Z" transform="translate(-199.33 -889.383)"/>
        </g>
        <g id="XMLID_1_" transform="translate(427.895 454.313)">
            <path id="Path_8" data-name="Path 8" d="M1128.694,582.155c-3.694.693-4.076-2.067-6.82-2.368-4.547,6.967-6.884,9.144-16.155,5.469-2.79-4.491-5.833-4.491-5.072-7.661-.285-8.349,11.724-7.945,18.045-9.171,4.993-.967,10.887-7.847,15-11.364,5.235-4.472,9.771-8.555,15.456-10.89,6.956-11.379,11.339-25.437,15.911-39.3-2.552-1.187-5.955-2.741-9.547-1.422-3.013,1.849-3.922,5.947-7.274,5.682-3.385-.267-5.675-6.4-8.637-8.049-2-.853-2.695,5.935-5,4.735-2.119-12.013-16.917-13.739-13.183-28.882,2.722-11.034,13.385-20.567,23.185-24.622h3.182c.927,1.086,3.776.17,5.455.473,12.7,6.821,26.419,12.571,25.912,33.144,20.323,2.3,30.415,12.558,38.641,26.514,4.016,6.815,5.43,13.659,7.729,21.781,4.266,15.086,12.144,29.011,15.911,42.615-.3,2.212-3.268,1.647-3.638,3.787,1.761,20.931-6.28,31.655-20.455,35.985.5,3.872-2.711,9.662-5.911,11.839-1.276.867-3.456,1.022-5,1.892-7.218,4.075-12.247,11.687-17.728,12.312-3.487.4-7.51-1.245-8.182-3.789-.871-3.284,1.481-4.567.908-6.628-8.035-5.265-20.886-11.369-29.094-17.518-3.122-2.339-5.28-5.621-8.183-7.576-4.4-2.964-10.348-4.014-13.637-7.576C1125.973,596.652,1126.868,589.051,1128.694,582.155Zm56.827-6.628c-1.434-8.608-5.779-14.185-7.728-22.254-1.981-.464-2.644-2.3-4.547-2.841-4.519,7.762-8.2,16.394-12.275,24.622C1169.626,575.869,1178.269,574.964,1185.521,575.526Z" transform="translate(-1100.529 -454.313)"/>
        </g>
    </g>
</svg>
