<svg xmlns="http://www.w3.org/2000/svg" width="371.5" height="343.694" viewBox="0 0 371.5 343.694">
    <g id="Layer_3" transform="translate(-74.667 -99.268)">
        <g id="Group_1" data-name="Group 1" transform="translate(332.569 99.268)">
            <path id="Path_1" data-name="Path 1" d="M387.355,233.549c-1.527.209-3.057.356-4.588.422-3.293-11.4-9.774-21.977-11.61-32.955-.128-.032-.256-.068-.386-.108l-.647.675c-1.135-1.519-2.654-.384-3.292.732l-.675-.647c-.656.234-.638,1.116-1.294,1.35-1.522.372-2.361,9.9-3.794,10.092.434,13.591.266,18.988,7.608,29.067a85.609,85.609,0,0,1,9.523-3.067A17.6,17.6,0,0,0,387.355,233.549Z" transform="translate(-361.069 -102.259)"/>
            <path id="Path_2" data-name="Path 2" d="M456.509,121.846c.608-26.46-44.332-30.188-49.279-8.4-1.939,8.541,7.556,14.361-2.463,22.8,9.757,1.066,5.156,8.677,8.622,15.6,5.838.883,8.472-1.351,13.553-1.2v14.4c-18.813,10.368-26.6,30.533-36.406,50.612-8.892,12.914-10.04,14.029-10.139,16.152-.208,4.453-34.081-19.634-3.949,16.4,2.077.362,7.274-1.214,11.95-4.858,4.157-3.239,5.44-9.2,7.743-9.9,2.522,29.627,1.512,56.521,3.7,82.8,2.936,35.356,18.173,65.993,12.319,103.2-5.648,2.9-16.562.668-19.713,6,1.275,11.768,20.062,2.156,25.872,4.8-6.319,2.644-17.051.993-22.176,4.8,8.242,15.011,43.419,4.181,59.136,3.6,13.987-46.435-16.418-91.567-9.856-138,1.2-8.489,6.3-16.556,6.16-25.2-.206-12.84-8.891-24.11-9.853-36,5.044.513,7.893-1.114,11.088-2.4,6.309-13.052,5.82-32.729,9.856-48C480.546,175.689,478.4,129.3,456.509,121.846Zm-9.856,26.4c1.677-7.569,7.456-11.14,7.394-20.4C460.571,134.082,452.831,146.457,446.653,148.245Z" transform="translate(-361.069 -99.268)"/>
            <path id="Path_3" data-name="Path 3" d="M361.071,214.773c-.049-.308,1.039-23.067,1.039-23.067a23.326,23.326,0,0,1,.1-5.611c1.2-10.755-.752-30.177,9.705-37.984,1.583,14.7,3.945,23.28,3.277,35.664-3.839,3.89-5.189,10.737-3.319,24.764C370.809,207.564,362.87,214.166,361.071,214.773Z" transform="translate(-361.069 -99.268)"/>
        </g>
        <path id="Path_4" data-name="Path 4" d="M230.157,254.822c2.593,21.222-14.754,22.5-27.939,27.939-3.566,34.108,25.975,55,7.288,82.605.477,20.75-1.131,48.113,1.216,63.169.087,6.8,9.632,4.137,9.719,10.932-12.777,7.737-16.524-6.515-29.155-6.072-.246,8.345,9.928,6.266,10.932,13.364-22.849.938-54.027-.2-66.813-13.364-28.073,4.95-51.468-5.189-60.738-23.082,9.545,1.549,18.55,13.719,32.8,15.795,7.425,1.078,14.214-.353,23.08-1.216-8.61-29.987,8.731-67.175,23.083-92.324,4.009-7.023,11.274-14.158,13.36-20.651,5.131-15.947-2.55-35.763,2.431-48.59,5.128-13.207,29.576-20.421,40.087-7.288C214.24,253.481,223.474,255.43,230.157,254.822Zm-26.723,172.5c-4.318-12.706-1.814-32.035-8.5-44.947.321,3.965-4.713,2.575-4.86,6.075,11.06,11.125-6.035,22.179,0,36.443C195.725,424.5,198.175,427.314,203.434,427.32Zm-19.439,15.795v-9.72c-7.422-5.065-18.158-2.752-24.295,2.429C170.881,435.172,180.946,435.634,183.995,443.115Z" transform="translate(0 -9.174)"/>
    </g>
</svg>
